# xmcd CD database file
#
# Track frame offsets:
#	180
#	18802
#	47001
#	73745
#	98993
#	125723
#	141779
#	171590
#	202116
#	226743
#	247650
#
# Disc length: 3519 seconds
#
# Revision: 1
# Processed by: cddbd v1.5.2PL0 Copyright (c) Steve Scherf et al.
# Submitted via: CDex 1.51
#
DISCID=970dbd0b
DTITLE=Ben Webster - Live at The Jazzhus Montmartre, Vol. 1
DYEAR=1965
DGENRE=Jazz
TTITLE0=Sunday
TTITLE1=That's All
TTITLE2=Gone With The Wind
TTITLE3=Over The Rainbow
TTITLE4=Indiana
TTITLE5=Misty
TTITLE6=Our Love Is Here To Stay
TTITLE7=My Romance
TTITLE8=Blues For Herluf
TTITLE9=Londonderry Air
TTITLE10=Set Call (The Theme)
EXTD=Ben Webster (tenor]\nKenny Drew (piano]\n Nils-Henning Oersted-Pedersen (bass) \nAlex Riel (drums]\n YEAR: 1965
EXTT0=
EXTT1=
EXTT2=
EXTT3=
EXTT4=
EXTT5=
EXTT6=
EXTT7=
EXTT8=
EXTT9=
EXTT10=
PLAYORDER=
